<mxfile host="app.diagrams.net" modified="2021-05-10T20:39:14.064Z" agent="5.0 (X11)" etag="Q79_omUNLYQ7kGnhZ-VX" version="14.6.11" type="github">
  <diagram id="C5RBs43oDa-KdzZeNtuy" name="Page-1">
    <mxGraphModel dx="1240" dy="1231" grid="1" gridSize="10" guides="1" tooltips="1" connect="1" arrows="1" fold="1" page="1" pageScale="1" pageWidth="2000" pageHeight="2000" math="0" shadow="0">
      <root>
        <mxCell id="WIyWlLk6GJQsqaUBKTNV-0" />
        <mxCell id="WIyWlLk6GJQsqaUBKTNV-1" parent="WIyWlLk6GJQsqaUBKTNV-0" />
        <mxCell id="OGA9XF_m5Bx5fPg7dGQ3-0" value="" style="shape=image;imageAspect=0;aspect=fixed;verticalLabelPosition=bottom;verticalAlign=top;image=data:image/png,iVBORw0KGgoAAAANSUhEUgAAARAAAADBCAYAAAAHH+8rAAAclklEQVR4nO2de3SNV/6HY9plZgxKmRlrMKi4LBGXVcalBKU1dAymUbchk7j1YpWharkt1yZdNMalCYk0gohQDZZ7DRKRMBmtKMbkQkgQyYkkcndOzvn8/sjv7DnnJNK+795v9g7fZ6291rv3Oe+7P0ecJ/u9ZG83EARB6MRNdgCCIOovJBCCIHRDAiEIQjckEIIgdEMCIQhCNyQQgiB0QwIhCEI3JBCCIHRDAiEIQjckEIIgdEMCIQhCN5oEkpeXh6ysLGRlZaGiogJms5nVHz58CAAoLi5GVlYWMjMzhQZ9+vTpM+tms1loXwBgs9mQmpqKuLg44ccmiOcFTQKx2Wxwd3dHbGwsawsPD0evXr1QWVnJ3jNq1Cg8evRISMBvv/0Wn332Gf785z87tQ8bNgydO3dGt27d8Mknnwjpy5WioiJ06dLFkGMTxPOA5lOYvn374uzZs6weEBCAXr16sbrFYkF2draYdA64CiQgIEB4HzVBAiGIZ6NZICNGjEBISAiAqt/Qly5dgru7O3t906ZN4tI5UJNAbDYbTCZTrft999132L17N44dO8bavv76a4SEhMBkMiE8PBzXr1932ufixYvYuXMnTCYTCYQgakGzQGbPno1FixYBAAIDAwEArVq1AgDcvXsXhYWFz9w3OjoaY8eOfWapDVeBTJgwARaLBeXl5ejdu/cz9+vTpw8A4OzZs9izZw9rb9WqFbKysgAAPXr0YO0LFy7E3bt3AQBpaWkkEIKoBc0CWb9+PcaPH48HDx6gpKQEANC4cWP2mlG4CsSRZs2a4ebNmzW+9p///AdZWVnYsWMHvL29WXuTJk3Y9oABA9h269atnfYngRDEs9EskG+++QYDBgxAZGTk/w7i5oZ9+/b96L6lpaW4f//+M0ttOArEZrPB09OT1Vu3bu00urBjsVjQunVrmM1m3L59G+PHj4fVagUAtGzZkr3PUSDt27d3OgYJhCCejWaBXLt2DS1atHC6jerm5uZ0Z+ZZWCwWPHny5JmlNsaMGeNUP3nyJNtu1KhRjft/9NFH2LlzJwAgKSkJ48aNw8GDBwEALVq0YO/r378/227fvj3Ky8sBVF3j6dy5849+LoJ4UdEskJKSEnz99ddObY7XEEQza9YsdOzYEZ06dULPnj3Zlzs6OhoHDx7E1KlTa73r07t3b4SHh+PMmTPw9PREREQE+vfvj44dO6JLly5Yv349XnvtNXTo0AHFxcWwWq0YPnw4IiIiEBcXh8aNG+Pjjz827PMRRH2GnkQlCEI3JBCCIHRDAiEIQjckEIIgdEMCIQhCNyQQgiB0QwIhCEI3JBCBzJs3D25ublSo1LuiFxKIQEggVOpr0QsJRCB2gfzjH/+QHQUAMGTIENkRaiUjI0N2hFpZuXIlCgoKZMcwFBKIQpBAtEECkQ8JRCFIINoggciHBKIQJBBtkEDkQwJRCBKINkgg8iGBKAQJRBskEPmQQBSCBKINEsj/OHToUJ304woJRCFECOT48eNsUmdeSCB81KVAxo8fXyf9uEICUQgRAklKSqq2Cp9eSCB81JVAHj58iOPHjxveT02QQBSCTmG0QQKpIjAwUNgvDa2QQBSCVyCnTp1Cu3bthOXRK5DDhw9j+PDh+OCDD/Dw4UP4+PgIy+SIHoGsXr3aaQ2hDh06AABmzJjhNNG2CPQI5OrVq4iPj8e5c+dw9OhRrF+/Hvn5+bXuM2LECLa9e/dufPfddzh//jyAqnWKACA5ORkdO3bU9gF+AiQQheARyKeffory8nI0a9ZMWB49AklMTITVakXz5s1Z28svvwygajmNlStXCkqnXSD37t0DAPZFqqysRPfu3QEAubm5OHfuHADgzp07SE9P586nRyDLly9HQkICvvjiCwBARUUF3n33XQBVs/yfOnXK6f0ZGRns38FqtSI+Ph579+5ln6VTp07svfbPbbPZsGrVKl2fyRUSiELwjkDCwsLw/fffC8ujdwSSl5eHWbNmsbpdIABgNpt5YzH0jEBycnIwfPhwAMD+/fuxbds2AFXXEfLy8gCArf3Di95TmAULFjDZRUVFYerUqQCqvviu2YYNG1Zt/1/96leorKxEcXExunbtytq3bt3KtkX9HEggCsErkPbt28NiseDChQtC8ugVyMGDB9lvygsXLsDHxwcVFRXYtWsXYmJihGQD9AkkLi4OZ86cAVC12FhlZSUA4MCBAwCA+Ph4TJ48WUg+vQJp3rw5y9WtWzeYTCZcv34dAQEBTms5m81mbNy4sdr+9rWmU1JSsHbtWgBg+5WXl+Orr77C6dOnNeeqCRKIQvAKZMiQIcjMzBT220WvQH7/+98jJiYGVqsVf/jDHwBU/WfOyMgQep1Bj0BSUlIQHh4Oq9WKUaNGIT8/HxaLBQ8ePABQtfBZbWsla0GvQBo3bozS0lJcunSJreCYnJwMHx8flJaWsvddvHgRjx49qrZ/mzZtAACLFi1i10D2798PALhx4wauXbuGuLg4zblqggSiELwCKSgogMViEZZHr0CaNWsGs9lc7Qvepk0b5OTk8Af7f/TehSktLUVqaioAOK3RDFT9G65bt46NUnjQI5DLly9j1apVyMzMZIug2Rk4cCAuXrzI6q6rLdqxWq1srefy8nLcuXPH6fX27dvj4cOHmnI9CxKIQjwPt3Fzc3Ph5eVV42tt2rTBrl27OFP9DyNu4+bl5WHx4sVCbr/qEYiXl1eNowoAePfdd3H9+nVWDw4O1pXL3d0dUVFRuvZ1hQSiEPVdIGazGVu3bkVQUJCwp2Fr43l7DiQ5ORkhISHYsmULbDZbre+136WRDQlEIeq7QOqa500gWpD14JgrJBCFIIFo40UWiCqQQBSCBKINEoh8SCAKYReIn58fDh06JL14eHhIz1BbCQkJkZ6htjJx4kRERkZKz2FkIYEoBI1AtEEjEPmQQBSCBKINEoh8SCAKQQLRBglEPiQQhSCBaIMEIh8SiEKQQLRBApEPCUQhSCDaIIHIhwSiECQQbZBA5EMCUQgRAikqKhKWh0cgJpMJZWVlNb5m/9N5XkQKJDc3V9ix7BgtkMLCwhrbHz16xOYTMRoSiELwCOTLL7+Et7c33nvvPWF59Apk+PDhyMjIwL59+6p9yY8fPw4/Pz/+cBArkJYtWwo7lh2jBBIYGIgpU6bA29vbqd1kMmHZsmV48OABZs6cKbzfmiCBKATvCOTChQvSBfL222+z7eXLlzvNLWqxWLB8+XLlBBIQECB0Llk7Ro5AEhMTqwnEcR5a+zyqRkMCUYj6LpCysjK4ubnh6dOnSEpKqvb6vHnzEBsbq5RAUlNTUVhYWO8FkpycjO7duyMzMxNpaWmG9FkTJBCFqO8CycnJwSuvvMJGHW3atGGzatmFopJArFYr9uzZAwD1XiABAQHw9PREUVERKioq0KdPH0P6dYUEohDPg0Ac/zNFRUVh3bp1qKysZCunqSSQwMBAtl3fBeLv7w8PDw9W79evnyEXhl0hgShEfRdIcXGx0xIOJ06cwMyZM7F79274+vrC19cXb731Ftzd3bFmzRrufDwCyc/Px6RJk1iuhg0bwtfXlzuTI3UpkLNnzzqNOgYNGoTY2FhD+naEBKIQvAKJi4vDhAkThOXRcxG1W7dubHvevHk4e/as0+v79u0T9kUVeRemvo1AEhISql1Etc/GDlQtKPVj0yKKgASiEDwC+ctf/oI333wTw4YNw+jRo4XMzq5HIGVlZRg5ciQiIiKcThEAIDIyEoMGDcLgwYOxYMEC7nwiBFJQUAAvLy8MHTq0xkWaeDBKIGPGjHH6Wdv573//i6VLl2Lt2rW4ceOG8H5rggSiEPQkqjboSVT5kEAUggSiDRKIfEggCkEC0QYJRD4kEIUggWiDBCIfEohCkEC0QQKRDwlEIewCWbFiBTIyMqSXfv36Sc9QW4mPj5eeobYyb948XLt2TXoOIwsJRCHsApk8eTJ27twpvXTp0kV6htrKhg0bpGeorYwdOxZBQUHScxhZSCAKQacw2sjIyJAdoVboFOYn7C8wywsPCUQbJBD5kEAUggSiDRKIfEggCkEC0QYJRD4kEIUggWiDBCIfEohCkEC0QQKRDwlEIUgg2iCByIcEohA8AsnJycHmzZsxZ84c3L17V0gePQJ5+vQpVqxYgR07djj9SXlZWRm++OILhIWFITs7W0g+EQIpLCxkz5M8fvyYP5QDRgokKysLAQEBTm3e3t7Ys2cPdu/ejVWrVhnSryskEIXQKxCz2YwrV66w+s9+9jNUVFRw59EqEJvNhtdee43VPT09UVJSApvNBk9PT9besWNHPH36lDsfr0DMZjP69+8PADh48CDmzZvHnckRowRy6tSpGmdlb9u2LXr06IGNGzcK7/NZkEAUQq9AfvjhB6cf4pAhQ5CSksKdR6tAcnNz0aRJE1bfvn07goKCUFJSgnfeeYe1h4eHY9u2bdz5eAXyxz/+kY06bDYbrFYrdyZH6npZh1GjRhnSV22QQBRC1DWQRo0aoaSkhDuPVoHk5+c7CSQoKAh+fn7Iz8/H9OnTWXtsbCw+/vhj7ny8AmnSpAnOnz+Pw4cPw8vLS/hqbnUtEC8vLyxYsABTpkwRtvrfj0ECUQgRAtmyZQs2b94sJI+eU5jXX3+d1UePHo0pU6bg9u3b8PHxYe3x8fFCZmbnEYjNZkODBg2QlZUFAEhLS8OMGTO4MzlS1wK5evUqgKrP9pvf/MaQfl0hgSgEr0DS0tIQHR0tLI/euzDffPMNtm/fjoiICPj7+6OwsBCTJk1ir586dQoLFy7kzsc7AmncuDHbzs7O5voi1ERdC6S0tJRtd+/evU7uAJFAFIJHIIWFhYiJiWH1nJwc7jx6BBIZGcm2PT09ce/ePVRUVKBv376sfenSpThy5Ah3Pl6BDBgwgJ22ZGVloWPHjtyZHKlLgZw5cwYffPABq7dr1w5ms9mQvh0hgSgEz12Yl156if0w3dzcnH4b6UWPQOyiSE1NxeLFi1n7X//6V7bdqFEj7mwAv0BMJhNmz54NAIbMZG6kQLZt24aBAwc6tS1ZsgQAkJ6eLvx07FmQQBTieXiQzGw24/jx4zVexLty5QrOnTsnIFkVIp4DKS4uxokTJ4RcdHalrh8kq6ysxLlz5+r0ATsSiEI8DwKpS+hJVPmQQBSCBKINEoh8SCAKQQLRBglEPiQQhSCBaIMEIh8SiEKQQLRBApEPCUQh7AKhQqW+Fb2QQARCIxBt0AhEPiQQhSCBaIMEIh8SiEKQQLRBApEPCUQhSCDaIIHIhwSiECQQbZBA5EMCUQgSiDZIIPIhgSgECUQbJBD5kEAUgkcgJpMJBw4cwPbt26XOym6xWLBr1y5ERUUhMzPT6bWSkhLs27dPSDaAXyCbNm3CgQMHcOzYMVZEYqRA8vLyEBYW5tR27949REdHY/v27cjLyzOkX1dIIArBI5Bu3bqx7ZdeeknIZDJ6BNKjRw82SU+nTp3Y7PAnTpxAamoqJk6cyJ3LDq9Axo0bh4ULF2Lx4sVYvHgx+vTpIybY/2OUQA4cOICjR49Wm5HsjTfeAFA1uVTDhg2F91sTJBCF4BGI42xUbm5uQpZN0DMru+M0gUFBQQgNDWX1oqIipQQSFxfHtuPj42EymTgTOVPXUxr+/e9/B1A1xwnPl1oLJBCFEHENZP/+/QgKChKSR6tAHj9+jKZNm7J6SEgIZs6cyeqqCcQRkXPJ2qlrgdjx9/fHt99+a0i/rpBAFIJXIA8ePMBXX32FZcuWwWazcefRMyt7165dWX3o0KGYPHkyq6sqkPfee0/IcVyRIZD79+/j888/x5dffmlIv66QQBRC1F2Ydu3a4datW9x59E5pGBUVhdDQUOzatQtr1qxhr6koELPZjFdffZU/TA3IGoHYbDY0b95cyMTaPwYJRCH0CuTkyZNOP8SePXvi1KlT3Hn0COTMmTNsu2/fvkhPT2d1FQWSnp7utOymSOpSIBs3bkSbNm1Y/Xe/+x1bJ8ZISCAKoVcg5eXlTuuhNm7cWMgqa3pOYXr27Amg6svteGEXAG7evIlBgwZx57IjQiD/+te/MGzYMP4wNWCkQMLCwjB48GBWLy4uZrfIs7Oz0bx5c0P6dYUEohC8pzAxMTE4efKksDx6RiAVFRUIDQ1FWlqasBzPQoRASkpKhC/nYKeuHySzWCyIjo5GbGxsnfVJAlEIehJVG/QkqnxIIApBAtEGCUQ+JBCFIIFogwQiHxKIQpBAtEECkQ8JRCFIINoggciHBKIQdoH4+fnh0KFD0ouHh4f0DLWVkJAQ6RlqKxMnTkRkZKT0HEYWEohC2AXyySef4OrVq9LL66+/Lj1DbeX48ePSM9RW5syZgwsXLkjPYWQhgSgEncJog05h5EMCUQgSiDZIIPIhgSgECUQbJBD5kEAUggSiDRKIfEggCkEC0QYJRD4kEIUggWiDBCIfEohCiBKIqIlkeAXi+he5ZWVlyM/P5zqmIyIFkpubK+xYdowWSGFhYbW2/Px8lJWVGdanKyQQhRAhkBMnTmDFihVC8vAI5Pvvv0fnzp1ZPSwsDKmpqcjIyMCIESMEpBMrkJYtWwo7lh2jBBIYGIgpU6ZUm5Hs/fffR1paGjZv3oxZs2YJ77cmSCAKwSuQsrIyxMTESBdIZWUltm7dygRis9mwaNEi9np2djZu377NnU+UQNatW4dmzZoJOZYjdTkj2b///W8EBwez+q9//WtYrVZD+naEBKIQvAIJCgrCDz/8IF0gn3/+Oe7du+ckkFatWiEgIAAAMGbMGCEzpokQSGpqKgoLC+u9QHJzc9m/LwC0bdsWpaWlhvTtCAlEIXgEkpycDJvNJl0gGRkZsFqtTgIBqqbca9iwIRo0aCDsGg2vQKxWK/bs2QMA9V4gjty/fx+tW7c2pF9XSCAKoVcgFRUVuHq1agJdmQKxWq04ePAgAFQbgfj6+sJsNmPHjh1o0KABUlJSuPPxCiQwMJBtP08C6dKlS52MPgASiFLoFUhQUBB8fX3h6+uLUaNGoWfPnli6dCl3Hq0CSUpKYjnGjx+Ppk2bYv78+SgqKsI///lP9r6CggJ8+umn3Pl4BJKfn49JkyaxvA0bNoSvry93JkfqWiBWqxXTp09ndRGrE/4YJBCFELUy3fLly4Xk4bkLk5CQgE6dOgGomrg4JCSEvVZaWoojR47wxhN6F6a+jUASEhKqCeTDDz9EcnIyrl+/jtOnTxvSryskEIXgFci2bdswaNAgDB48GPPnz+fOo1cgiYmJGDx4MLy8vDBt2jQAwOHDh7Fhwwbs3bsXmzdv5s4GiBFIQUEBvLy8MHToUOHLOxglkDFjxuDNN9/EsGHDMHr0aABV6/H07NnTqdQFJBCFoCdRtUFPosqHBKIQJBBtkEDkQwJRCBKINkgg8iGBKAQJRBskEPmQQBSCBKINEoh8SCAKQQLRBglEPiQQhbALZPLkydi5c6f00qVLF+kZaisbNmyQnqG2MnbsWAQFBUnPYWQhgSgEjUC0QSMQ+ZBAFIIEog0SiHxIIApBAtEGCUQ+JBCFIIFogwQiHxKIQpBAtEECkQ8JRCFIINoggciHBKIQJBBtkEDkQwJRCB6BTJo0CeHh4YiKipI6H4jJZEJoaCgCAwNx4sQJ1n7v3j3s2LED/v7+SEpKEpJPhECCg4MRERHhNDuZKOpCIDdu3MD+/furtScmJuLy5cuG9g2QQJSCRyBt27ZFr169sGTJEmF59AikR48ebNvNzQ0pKSmw2Wzo0KGDU3txcTF3Pl6BTJw4EefPnwcAzJkzBzt37uTO5IjRAjl37hyCg4Oxbt06p/b4+HgsXLgQMTExhvVthwSiEDwC8fT0FJ5Hj0CioqLYtpubG1u+wfHL6ebmhidPnvDG4xbIpUuXcPfuXQDAtGnTsGvXLu5MjtTFCKQmgQAggbyI8AjEw8MDH330EebMmYObN28KyaP3Gkh5eTmOHTuGhQsXOrWXlZUhNDQUe/fuFZBOzClMZWUlCgoK4OHhwR/IBRLIT9hfYJYXHh6BxMXFsW13d3chE+rqFYjJZMLZs2fx1ltvwWKxsPacnBwcOXIEkydP5s4GiBFIRUUFbt26hTfeeAOPHj3iD+UACeQn7C8wywsPj0CKiorY9tixY4Ws/MZ7F2bgwIFYuXJltfYGDRpg06ZNXMcGxN6FuXLlCn77298KOx5AAvlJ+wvM8sKjVyDXr1/HO++8w+oDBgxAXl4edx6tAsnNzXX6z/SnP/0JCxYsQGFhoVP7q6++is8++4w7H69AfvGLX+DOnTsAgGvXrqFp06bcmRwhgfyE/QVmeeHhGYH87W9/A1B1Ti/q+Q2tx7HZbE7rvTRo0ADl5eWwWq1YvXo1gKq1S15++WUh+XgFMmPGDLbdvXt3JCYmciZypi4EMnfuXKe1YOyMHz++xtGfaEggCsH7IFlCQgJu3bolLI9eESUlJSE+Pr5a+6VLl4Q+myDiFCYjIwOnT58WclvZFXqQ7CfsLzDLCw89iaoNehJVPiQQhSCBaIMEIh8SiEKQQLRBApEPCUQhSCDaIIHIhwSiECQQbZBA5EMCUQi7QKhQqW9FLyQQgdAIRBs0ApEPCUQhSCDaIIHIhwSiECQQbZBA5EMCUQgSiDZIIPIhgSgECUQbJBD5kEAUggSiDRKIfEggCkEC0QYJRD4kEIUQIZDbt2+jvLxcSB4egeTn59fYdv/+fY5EzogSiFFfcqMFkpOTU60tOzsbubm5hvXpCglEIXgF4uPjgydPnmDt2rXSpjQMCwvD22+/jYEDBzq1r169Gjk5OSgoKBA2ATSvQC5fvowJEybgl7/8pZA8rhglkGXLlmHkyJHw9vZ2ah83bhxMJhMyMzOxbNky4f3WBAlEIXgE0qRJE7a9fPlymM1m7jx6RyCPHz/GgAEDWN1sNqNfv36svmzZshrnC9GKqBFIs2bNhBzHFSNHIImJiU4Cyc3NdZqVbvDgwbDZbIb07QgJRCH0CiQ9PR1ubm7Izs7GpUuXhOURJZDCwkKniZRPnz4tZP0aEsj/BLJhwwasWLGC1b29vREbG2tI346QQBRCr0COHDmCFi1a4PHjxwCqpuerrKzkziNKIHfv3oWPjw+rx8fHY+bMmZzpSCCOApk/fz78/f1ZferUqQgPDzekb0dIIAqhVyBHjx51+iHOmTMH165d484jSiB5eXmYNm0aq58/fx4ffvghbzwSiINAlixZgjVr1rD6pEmTEB0dbUjfjpBAFEKvQFJSUpwmKp47dy4OHTrEnUeUQIqLizFy5EhWDw0NxYYNG3jjkUAcBLJ//36nSaJHjhwpZGmPH4MEohA8F1F//vOfs20vLy+UlZVx5+ERSP/+/VndZrOhdevWrN67d28hy06IEsgrr7wi5DiuGCmQhIQEJ4FUVlaia9eurO7u7m5Iv66QQBSCRyAlJSWYO3cugoODhdzhAPQJZMuWLfDx8YGPjw9mzZrFnlXIzMzE+vXrsW/fPragNS+8Arly5QpmzJgBHx8f+Pn5CV/N3iiBvP/++/Dx8cH06dMxe/Zs1n716lVEREQgODgY6enpwvutCRKIQtCTqNqgJ1HlQwJRCBKINkgg8iGBKAQJRBskEPmQQBSCBKINEoh8SCAKQQLRBglEPiQQhbALxM/PD4cOHZJePDw8pGeorYSEhEjPUFuZOHEiIiMjpecwspBAFIKWdaBSX4teSCAEQeiGBEIQhG5IIARB6IYEQhCEbkggBEHohgRCEIRu/g+imrGFbxUzIwAAAABJRU5ErkJggg==;" vertex="1" parent="WIyWlLk6GJQsqaUBKTNV-1">
          <mxGeometry x="10" y="60" width="520" height="369" as="geometry" />
        </mxCell>
        <mxCell id="OGA9XF_m5Bx5fPg7dGQ3-6" value="Vertical Container" style="swimlane;" vertex="1" parent="WIyWlLk6GJQsqaUBKTNV-1">
          <mxGeometry x="900" y="200" width="200" height="221" as="geometry" />
        </mxCell>
        <mxCell id="OGA9XF_m5Bx5fPg7dGQ3-18" value="" style="shape=crossbar;whiteSpace=wrap;html=1;rounded=1;" vertex="1" parent="OGA9XF_m5Bx5fPg7dGQ3-6">
          <mxGeometry y="90" width="200" height="20" as="geometry" />
        </mxCell>
        <mxCell id="OGA9XF_m5Bx5fPg7dGQ3-20" value="" style="line;strokeWidth=2;html=1;" vertex="1" parent="OGA9XF_m5Bx5fPg7dGQ3-6">
          <mxGeometry y="149" width="200" height="10" as="geometry" />
        </mxCell>
        <mxCell id="OGA9XF_m5Bx5fPg7dGQ3-21" value="" style="line;strokeWidth=2;direction=south;html=1;" vertex="1" parent="OGA9XF_m5Bx5fPg7dGQ3-6">
          <mxGeometry x="95" y="99" width="10" height="51" as="geometry" />
        </mxCell>
        <object label="List Item" placeholders="1" ChooseOrRejectList="{  }" id="OGA9XF_m5Bx5fPg7dGQ3-24">
          <mxCell style="text;strokeColor=none;fillColor=none;align=left;verticalAlign=top;spacingLeft=4;spacingRight=4;overflow=hidden;rotatable=0;points=[[0,0.5],[1,0.5]];portConstraint=eastwest;" vertex="1" parent="OGA9XF_m5Bx5fPg7dGQ3-6">
            <mxGeometry y="49" width="200" height="51" as="geometry" />
          </mxCell>
        </object>
        <object label="Title" placeholders="1" order="root[0]" id="OGA9XF_m5Bx5fPg7dGQ3-25">
          <mxCell style="text;align=center;fontStyle=1;verticalAlign=middle;spacingLeft=3;spacingRight=3;strokeColor=none;rotatable=0;points=[[0,0.5],[1,0.5]];portConstraint=eastwest;" vertex="1" parent="OGA9XF_m5Bx5fPg7dGQ3-6">
            <mxGeometry x="120" y="23" width="80" height="26" as="geometry" />
          </mxCell>
        </object>
        <mxCell id="OGA9XF_m5Bx5fPg7dGQ3-27" value="item: attribute" style="label;fontStyle=0;strokeColor=none;fillColor=none;align=left;verticalAlign=top;overflow=hidden;spacingLeft=28;spacingRight=4;rotatable=0;points=[[0,0.5],[1,0.5]];portConstraint=eastwest;imageWidth=16;imageHeight=16;image=img/clipart/Gear_128x128.png" vertex="1" parent="OGA9XF_m5Bx5fPg7dGQ3-6">
          <mxGeometry x="100" y="100" width="100" height="50" as="geometry" />
        </mxCell>
        <mxCell id="OGA9XF_m5Bx5fPg7dGQ3-28" value="item: attribute" style="label;fontStyle=0;strokeColor=none;fillColor=none;align=left;verticalAlign=top;overflow=hidden;spacingLeft=28;spacingRight=4;rotatable=0;points=[[0,0.5],[1,0.5]];portConstraint=eastwest;imageWidth=16;imageHeight=16;image=img/clipart/Gear_128x128.png" vertex="1" parent="OGA9XF_m5Bx5fPg7dGQ3-6">
          <mxGeometry x="40" y="195" width="120" height="26" as="geometry" />
        </mxCell>
        <mxCell id="OGA9XF_m5Bx5fPg7dGQ3-26" value="item: attribute" style="label;fontStyle=0;strokeColor=none;fillColor=none;align=left;verticalAlign=top;overflow=hidden;spacingLeft=28;spacingRight=4;rotatable=0;points=[[0,0.5],[1,0.5]];portConstraint=eastwest;imageWidth=16;imageHeight=16;image=img/clipart/Gear_128x128.png" vertex="1" parent="WIyWlLk6GJQsqaUBKTNV-1">
          <mxGeometry x="900" y="300" width="105" height="50" as="geometry" />
        </mxCell>
      </root>
    </mxGraphModel>
  </diagram>
</mxfile>
